<?xml version="1.0" encoding="utf-8"?>
<!-- Generator: Adobe Illustrator 18.1.1, SVG Export Plug-In . SVG Version: 6.00 Build 0)  -->
<svg version="1.1" xmlns="http://www.w3.org/2000/svg" xmlns:xlink="http://www.w3.org/1999/xlink" x="0px" y="0px"
	 viewBox="0 0 133.6 212.8" enable-background="new 0 0 133.6 212.8" xml:space="preserve">
<g id="Layer_1">
</g>
<g id="Location_Pin">
	<g>
		<g>
			<path fill="#0084CB" d="M66.9,0h-0.3C29.9,0,0,29.9,0,66.6c0,24.1,11,55.9,32.6,94.5c16,28.6,32.3,50.5,32.5,50.7
				c0.5,0.6,1.2,1,1.9,1c0,0,0,0,0.1,0c0.8,0,1.5-0.4,1.9-1.1c0.2-0.2,16.3-24.6,32.2-54.4c21.5-40.2,32.4-70.7,32.4-90.7
				C133.6,29.9,103.7,0,66.9,0z M97.7,68.2c0,17-13.9,30.9-30.9,30.9c-17,0-30.9-13.9-30.9-30.9s13.9-30.9,30.9-30.9
				C83.8,37.3,97.7,51.2,97.7,68.2z"/>
		</g>
		<g>
			<path fill="#0AADFF" d="M66.8,99.2c-17,0-30.9-13.9-30.9-30.9s13.9-30.9,30.9-30.9c0,0,0,0,0,0V0h-0.2C29.9,0,0,29.9,0,66.6
				c0,24.1,11,55.9,32.6,94.5c16,28.6,32.3,50.5,32.5,50.7c0.4,0.6,1.1,0.9,1.7,0.9L66.8,99.2C66.8,99.2,66.8,99.2,66.8,99.2z"/>
		</g>
	</g>
</g>
</svg>
