<?xml version="1.0" encoding="UTF-8" standalone="no"?>
<!-- Created with Inkscape (http://www.inkscape.org/) -->

<svg
   xmlns:dc="http://purl.org/dc/elements/1.1/"
   xmlns:cc="http://creativecommons.org/ns#"
   xmlns:rdf="http://www.w3.org/1999/02/22-rdf-syntax-ns#"
   xmlns:svg="http://www.w3.org/2000/svg"
   xmlns="http://www.w3.org/2000/svg"
   xmlns:sodipodi="http://sodipodi.sourceforge.net/DTD/sodipodi-0.dtd"
   xmlns:inkscape="http://www.inkscape.org/namespaces/inkscape"
   id="svg1340"
   sodipodi:version="0.32"
   inkscape:version="0.91 r13725"
   width="86"
   height="100"
   sodipodi:docname="Helsinki.vaakuna.svg"
   version="1.0"
   inkscape:output_extension="org.inkscape.output.svg.inkscape">
  <metadata
     id="metadata1345">
    <rdf:RDF>
      <cc:Work
         rdf:about="">
        <dc:format>image/svg+xml</dc:format>
        <dc:type
           rdf:resource="http://purl.org/dc/dcmitype/StillImage" />
        <dc:title></dc:title>
      </cc:Work>
    </rdf:RDF>
  </metadata>
  <defs
     id="defs1343">
    <inkscape:perspective
       sodipodi:type="inkscape:persp3d"
       inkscape:vp_x="0 : 290 : 1"
       inkscape:vp_y="0 : 1000 : 0"
       inkscape:vp_z="500 : 290 : 1"
       inkscape:persp3d-origin="250 : 193.33333 : 1"
       id="perspective28" />
  </defs>
  <sodipodi:namedview
     inkscape:window-height="1150"
     inkscape:window-width="1600"
     inkscape:pageshadow="2"
     inkscape:pageopacity="0.0"
     borderopacity="1.0"
     bordercolor="#666666"
     pagecolor="#ffffff"
     id="base"
     showgrid="true"
     inkscape:grid-points="true"
     gridtolerance="0.5px"
     inkscape:zoom="1.4177628"
     inkscape:cx="-35.811639"
     inkscape:cy="284.09986"
     inkscape:window-x="1555"
     inkscape:window-y="60"
     inkscape:current-layer="layer1"
     units="px"
     height="209mm"
     fit-margin-top="0"
     fit-margin-left="0"
     fit-margin-right="0"
     fit-margin-bottom="0"
     inkscape:window-maximized="0" />
  <g
     inkscape:groupmode="layer"
     id="layer1"
     inkscape:label="Layer1"
     transform="translate(-413.91821,-478.02299)">
    <path
       style="fill:#0072c6;fill-opacity:1;fill-rule:evenodd;stroke:#00337f;stroke-width:1.70614898;stroke-linecap:butt;stroke-linejoin:round;stroke-miterlimit:4;stroke-dasharray:none;stroke-opacity:1"
       d="m 414.77128,479.78416 84.03766,0 0,79.63794 c 0,0 0.0579,4.61643 -3.75269,9.10147 -3.86642,4.55074 -10.91694,5.11959 -10.91694,5.11959 l -22.40246,0 c 0.0169,0 -2.61552,0 -4.88988,3.52682 -2.27436,-3.52682 -5.45847,-3.52682 -5.42732,-3.52682 l -22.20617,0 c 0,0 -6.59565,-0.79638 -10.34835,-4.66451 -3.7527,-3.86813 -4.09385,-9.55655 -4.09385,-9.55655 l 0,-79.63794 z"
       id="path1350"
       sodipodi:nodetypes="ccczccccczcc"
       inkscape:connector-curvature="0" />
    <path
       style="fill:#ffc61e;fill-opacity:1;fill-rule:evenodd;stroke:#00337f;stroke-width:1.02368951;stroke-linecap:round;stroke-linejoin:round;stroke-miterlimit:4;stroke-opacity:1"
       d="m 438.08349,512.77702 c 0,0 -0.56859,-0.11377 -0.56859,-0.79637 0,-0.56885 0.56859,-0.91015 0.56859,-0.91015 0,0 -1.02347,-0.45508 -1.02347,-1.70653 0,-1.25145 1.02347,-1.70653 1.02347,-1.70653 0,0 -0.56859,-0.22753 -0.56859,-0.91014 0,-0.56885 0.56859,-0.91015 0.56859,-0.91015 0,0 -0.75592,-0.91886 -0.79603,-3.52683 l -1.47833,-3.18551 c 0,0 -0.48331,-0.0284 -0.90975,-0.79638 -0.42644,-0.76794 -0.22744,-1.47899 -0.79603,-2.27537 -0.56859,-0.79638 -1.59205,-0.79638 -1.59205,-0.79638 0,0 0,-1.93407 1.70577,-2.1616 1.70578,-0.22754 2.38808,1.36522 2.38808,1.36522 0,0 1.10875,-0.22754 1.81949,0.22754 0.71074,0.45507 1.02347,1.70652 1.02347,1.70652 -1.0327,0.54166 -1.47834,1.13769 -1.47834,1.13769 0,0 0.68231,0.56884 1.59205,0.56884 0.90975,0 1.81949,-1.13769 1.81949,-1.13769 0,0 1.02347,0.34131 0.45487,2.04784 0,0 1.93321,0.68261 1.93321,1.36522 0,0.68261 -1.93321,1.25145 -1.93321,1.25145 0.53882,1.06392 -0.45487,2.27537 -0.45487,2.27537 0,0 -0.71693,-1.9176 -3.18411,-1.02391 0,0 1.25091,2.38913 4.20758,2.38913 3.07038,0 4.77615,-3.29928 4.77615,-3.29928 0,0 1.2509,3.29928 4.54872,3.29928 3.29783,0 4.43501,-2.61667 4.43501,-2.61667 -2.27436,-1.70653 -3.41154,0.79638 -3.41154,0.79638 -0.96419,-0.85113 -0.56859,-2.38914 -0.56859,-2.38914 0,0 -1.93321,-0.56884 -1.93321,-1.25145 0,-0.68261 2.16064,-1.25145 2.16064,-1.25145 -0.56859,-1.25146 0.34116,-2.50291 0.34116,-2.50291 0.68231,1.70652 1.59205,1.36522 1.59205,1.36522 0.99255,-1.39017 -1.02346,-2.73044 -1.02346,-2.73044 0.87911,-0.8795 2.16064,-0.45508 2.16064,-0.45508 0,0 0.69653,-1.93406 1.39305,-1.93406 0.69652,0 1.39304,1.93406 1.39304,1.93406 0,0 1.28154,-0.42442 2.16065,0.45508 0,0 -2.01601,1.34027 -1.02346,2.73044 0,0 0.90974,0.3413 1.59205,-1.36522 0,0 0.90975,1.25145 0.34116,2.50291 0,0 2.16064,0.56884 2.16064,1.25145 0,0.68261 -1.93321,1.25145 -1.93321,1.25145 0,0 0.39559,1.53801 -0.56859,2.38914 0,0 -1.13718,-2.50291 -3.41154,-0.79638 0,0 1.13718,2.61667 4.435,2.61667 3.29782,0 4.54873,-3.29928 4.54873,-3.29928 0,0 1.70577,3.29928 4.77616,3.29928 2.95667,0 4.20756,-2.38913 4.20756,-2.38913 -2.46717,-0.89369 -3.1841,1.02391 -3.1841,1.02391 0,0 -0.99368,-1.21145 -0.45487,-2.27537 0,0 -1.93321,-0.56884 -1.93321,-1.25145 0,-0.68261 1.93321,-1.36522 1.93321,-1.36522 -0.56859,-1.70653 0.45487,-2.04784 0.45487,-2.04784 0,0 0.90974,1.13769 1.81949,1.13769 0.90974,0 1.59205,-0.56884 1.59205,-0.56884 0,0 -0.44564,-0.59603 -1.47833,-1.13769 0,0 0.31272,-1.25145 1.02346,-1.70652 0.71073,-0.45508 1.81949,-0.22754 1.81949,-0.22754 0,0 0.68231,-1.59276 2.38808,-1.36522 1.70577,0.22753 1.70577,2.1616 1.70577,2.1616 0,0 -1.02346,0 -1.59205,0.79638 -0.56859,0.79638 -0.36959,1.50743 -0.79603,2.27537 -0.42645,0.76794 -0.90975,0.79638 -0.90975,0.79638 l -1.47833,3.18551 c -0.0401,2.60797 -0.79603,3.52683 -0.79603,3.52683 0,0 0.56859,0.3413 0.56859,0.91015 0,0.68261 -0.56859,0.91014 -0.56859,0.91014 0,0 1.02347,0.45508 1.02347,1.70653 0,1.25145 -1.02347,1.70653 -1.02347,1.70653 0,0 0.56859,0.3413 0.56859,0.91015 0,0.6826 -0.56859,0.79637 -0.56859,0.79637 l -37.58382,0 z"
       id="path9249"
       inkscape:connector-curvature="0" />
    <path
       style="fill:none;fill-opacity:0.75;fill-rule:evenodd;stroke:#00337f;stroke-width:0.79620296;stroke-linecap:round;stroke-linejoin:round;stroke-miterlimit:4;stroke-dasharray:none;stroke-opacity:1"
       d="m 439.67554,506.63353 34.5703,0"
       id="path2242"
       inkscape:connector-curvature="0" />
    <path
       sodipodi:type="arc"
       style="display:inline;overflow:visible;visibility:visible;opacity:1;fill:#ffffff;fill-opacity:1;fill-rule:evenodd;stroke:#00337f;stroke-width:0.79620284;stroke-linecap:round;stroke-linejoin:round;stroke-miterlimit:4;stroke-dasharray:none;stroke-dashoffset:0;stroke-opacity:1;marker:none;marker-start:none;marker-mid:none;marker-end:none"
       id="path3121"
       sodipodi:cx="437.28748"
       sodipodi:cy="500.34729"
       sodipodi:rx="2.1882915"
       sodipodi:ry="2.1892583"
       d="m 439.47577,500.34729 a 2.1882915,2.1892583 0 0 1 -2.15537,2.18901 2.1882915,2.1892583 0 0 1 -2.22023,-2.12314 2.1882915,2.1892583 0 0 1 2.08856,-2.2529 2.1882915,2.1892583 0 0 1 2.28308,2.05535"
       sodipodi:start="0"
       sodipodi:end="6.2230001"
       sodipodi:open="true" />
    <path
       sodipodi:type="arc"
       style="display:inline;overflow:visible;visibility:visible;opacity:1;fill:#ffffff;fill-opacity:1;fill-rule:evenodd;stroke:#00337f;stroke-width:0.79620284;stroke-linecap:round;stroke-linejoin:round;stroke-miterlimit:4;stroke-dasharray:none;stroke-dashoffset:0;stroke-opacity:1;marker:none;marker-start:none;marker-mid:none;marker-end:none"
       id="path3123"
       sodipodi:cx="447.06723"
       sodipodi:cy="500.34702"
       sodipodi:rx="2.1882915"
       sodipodi:ry="2.1892583"
       d="m 449.25552,500.34702 a 2.1882915,2.1892583 0 0 1 -2.15537,2.18901 2.1882915,2.1892583 0 0 1 -2.22022,-2.12314 2.1882915,2.1892583 0 0 1 2.08856,-2.2529 2.1882915,2.1892583 0 0 1 2.28307,2.05534"
       sodipodi:start="0"
       sodipodi:end="6.2230001"
       sodipodi:open="true" />
    <path
       sodipodi:type="arc"
       style="display:inline;overflow:visible;visibility:visible;opacity:1;fill:#ffffff;fill-opacity:1;fill-rule:evenodd;stroke:#00337f;stroke-width:0.79620284;stroke-linecap:round;stroke-linejoin:round;stroke-miterlimit:4;stroke-dasharray:none;stroke-dashoffset:0;stroke-opacity:1;marker:none;marker-start:none;marker-mid:none;marker-end:none"
       id="path3125"
       sodipodi:cx="456.87622"
       sodipodi:cy="499.38156"
       sodipodi:rx="2.1882915"
       sodipodi:ry="2.1892583"
       d="m 459.06451,499.38156 a 2.1882915,2.1892583 0 0 1 -2.15536,2.18901 2.1882915,2.1892583 0 0 1 -2.22023,-2.12314 2.1882915,2.1892583 0 0 1 2.08856,-2.2529 2.1882915,2.1892583 0 0 1 2.28307,2.05535"
       sodipodi:start="0"
       sodipodi:end="6.2230001"
       sodipodi:open="true" />
    <path
       sodipodi:type="arc"
       style="display:inline;overflow:visible;visibility:visible;opacity:1;fill:#ffffff;fill-opacity:1;fill-rule:evenodd;stroke:#00337f;stroke-width:0.79620284;stroke-linecap:round;stroke-linejoin:round;stroke-miterlimit:4;stroke-dasharray:none;stroke-dashoffset:0;stroke-opacity:1;marker:none;marker-start:none;marker-mid:none;marker-end:none"
       id="path3127"
       sodipodi:cx="466.62674"
       sodipodi:cy="500.34702"
       sodipodi:rx="2.1882915"
       sodipodi:ry="2.1892583"
       d="m 468.81503,500.34702 a 2.1882915,2.1892583 0 0 1 -2.15537,2.18901 2.1882915,2.1892583 0 0 1 -2.22022,-2.12314 2.1882915,2.1892583 0 0 1 2.08856,-2.2529 2.1882915,2.1892583 0 0 1 2.28307,2.05534"
       sodipodi:start="0"
       sodipodi:end="6.2230001"
       sodipodi:open="true" />
    <path
       sodipodi:type="arc"
       style="display:inline;overflow:visible;visibility:visible;opacity:1;fill:#ffffff;fill-opacity:1;fill-rule:evenodd;stroke:#00337f;stroke-width:0.79620284;stroke-linecap:round;stroke-linejoin:round;stroke-miterlimit:4;stroke-dasharray:none;stroke-dashoffset:0;stroke-opacity:1;marker:none;marker-start:none;marker-mid:none;marker-end:none"
       id="path3129"
       sodipodi:cx="476.4357"
       sodipodi:cy="500.34702"
       sodipodi:rx="2.1882915"
       sodipodi:ry="2.1892583"
       d="m 478.62399,500.34702 a 2.1882915,2.1892583 0 0 1 -2.15537,2.18901 2.1882915,2.1892583 0 0 1 -2.22022,-2.12314 2.1882915,2.1892583 0 0 1 2.08856,-2.2529 2.1882915,2.1892583 0 0 1 2.28307,2.05534"
       sodipodi:start="0"
       sodipodi:end="6.2230001"
       sodipodi:open="true" />
    <path
       style="fill:#ffffff;fill-opacity:1;fill-rule:evenodd;stroke:#00337f;stroke-width:0.90994608;stroke-linecap:round;stroke-linejoin:round;stroke-miterlimit:4;stroke-dasharray:none;stroke-opacity:1"
       d="m 443.08708,509.36397 -2.95667,-1.36522 c 0,0 -0.6823,0.56884 -0.6823,1.36522 0,0.79638 0.6823,1.36522 0.6823,1.36522 l 2.95667,-1.36522 z"
       id="path3131"
       sodipodi:nodetypes="cczcc"
       inkscape:connector-curvature="0" />
    <path
       style="fill:#ffffff;fill-opacity:1;fill-rule:evenodd;stroke:#00337f;stroke-width:0.90994608;stroke-linecap:round;stroke-linejoin:round;stroke-miterlimit:4;stroke-dasharray:none;stroke-opacity:1"
       d="m 460.71339,509.36397 -3.86642,-1.70653 -3.86641,1.70653 3.86641,1.70653 3.86642,-1.70653 z"
       id="path4879"
       sodipodi:nodetypes="ccccc"
       inkscape:connector-curvature="0" />
    <path
       style="fill:#ffffff;fill-opacity:1;fill-rule:evenodd;stroke:#00337f;stroke-width:0.90994608;stroke-linecap:round;stroke-linejoin:round;stroke-miterlimit:4;stroke-dasharray:none;stroke-opacity:1"
       d="m 471.17545,509.47774 2.95667,-1.36522 c 0,0 0.68231,0.56884 0.68231,1.36522 0,0.79638 -0.68231,1.36522 -0.68231,1.36522 l -2.95667,-1.36522 z"
       id="path4881"
       sodipodi:nodetypes="cczcc"
       inkscape:connector-curvature="0" />
    <path
       sodipodi:type="arc"
       style="display:inline;overflow:visible;visibility:visible;opacity:1;fill:#0072c6;fill-opacity:1;fill-rule:evenodd;stroke:#00337f;stroke-width:0.90994608;stroke-linecap:round;stroke-linejoin:round;stroke-miterlimit:4;stroke-dasharray:none;stroke-dashoffset:0;stroke-opacity:1;marker:none;marker-start:none;marker-mid:none;marker-end:none"
       id="path4883"
       sodipodi:cx="466.62677"
       sodipodi:cy="509.37799"
       sodipodi:rx="2.1049244"
       sodipodi:ry="1.3792636"
       d="m 468.73169,509.37799 a 2.1049244,1.3792636 0 0 1 -2.07325,1.37911 2.1049244,1.3792636 0 0 1 -2.13564,-1.33761 2.1049244,1.3792636 0 0 1 2.00899,-1.41936 2.1049244,1.3792636 0 0 1 2.19609,1.2949"
       sodipodi:start="0"
       sodipodi:end="6.2230001"
       sodipodi:open="true" />
    <path
       sodipodi:type="arc"
       style="display:inline;overflow:visible;visibility:visible;opacity:1;fill:#0072c6;fill-opacity:1;fill-rule:evenodd;stroke:#00337f;stroke-width:0.90994608;stroke-linecap:round;stroke-linejoin:round;stroke-miterlimit:4;stroke-dasharray:none;stroke-dashoffset:0;stroke-opacity:1;marker:none;marker-start:none;marker-mid:none;marker-end:none"
       id="path4885"
       sodipodi:cx="447.06723"
       sodipodi:cy="509.37799"
       sodipodi:rx="2.1049244"
       sodipodi:ry="1.3792636"
       d="m 449.17215,509.37799 a 2.1049244,1.3792636 0 0 1 -2.07325,1.37911 2.1049244,1.3792636 0 0 1 -2.13564,-1.33761 2.1049244,1.3792636 0 0 1 2.00899,-1.41936 2.1049244,1.3792636 0 0 1 2.19609,1.2949"
       sodipodi:start="0"
       sodipodi:end="6.2230001"
       sodipodi:open="true" />
    <path
       style="fill:#ffc61e;fill-opacity:1;fill-rule:evenodd;stroke:#00337f;stroke-width:1.70614898;stroke-linecap:butt;stroke-linejoin:round;stroke-miterlimit:4;stroke-dasharray:none;stroke-opacity:1"
       d="m 422.16296,515.16616 3.98013,2.1616 c 0.56859,17.86165 13.64617,25.48414 13.64617,25.48414 l -5.91334,1.02392 c 0,0 -12.95621,-11.13611 -11.71296,-28.66966 z"
       id="path2234"
       sodipodi:nodetypes="ccccc"
       inkscape:connector-curvature="0" />
    <path
       style="fill:#ffc61e;fill-opacity:1;fill-rule:evenodd;stroke:#00337f;stroke-width:1.70614898;stroke-linecap:butt;stroke-linejoin:round;stroke-miterlimit:4;stroke-dasharray:none;stroke-opacity:1"
       d="m 491.41727,515.22304 -3.98014,2.16161 c -0.56859,17.86164 -13.64617,25.48413 -13.64617,25.48413 l 5.91335,1.02392 c 0,0 12.9562,-11.1361 11.71296,-28.66966 z"
       id="path3984"
       sodipodi:nodetypes="ccccc"
       inkscape:connector-curvature="0" />
    <path
       style="fill:#ffc61e;fill-opacity:1;fill-rule:evenodd;stroke:#00337f;stroke-width:1.70614898;stroke-linecap:butt;stroke-linejoin:round;stroke-miterlimit:4;stroke-dasharray:none;stroke-opacity:1"
       d="m 426.48424,520.51328 c 3.29783,2.04783 12.73643,5.11958 12.73643,5.11958 l 0,4.43697 c 0,0 8.98298,2.61668 17.6263,2.61668 8.75629,0 17.6263,-2.61668 17.6263,-2.61668 l 0,-4.43697 c 0,0 9.66604,-3.29929 12.62271,-5.23335 -0.11372,10.92178 -12.05412,22.52616 -12.05412,22.52616 l -18.53605,8.6464 -17.0577,-8.53263 c 0,0 -11.82669,-8.41887 -12.96387,-22.52616 z"
       id="path5746"
       sodipodi:nodetypes="ccczccccccc"
       inkscape:connector-curvature="0" />
    <path
       sodipodi:nodetypes="czzzzzzzzzcczccccczcc"
       id="path2229"
       d="m 414.77128,544.40466 c 0,0 0.90785,-1.8203 4.32129,-1.8203 3.41154,0 4.97516,2.92954 9.66604,2.95798 4.69087,0.0284 4.46343,-2.81577 9.09744,-2.84421 4.63401,-0.0284 5.03202,2.84421 9.66604,2.84421 4.63401,0 4.57715,-2.87265 9.32488,-2.84421 4.74773,0.0284 4.7193,2.84421 9.4386,2.84421 4.7193,0 4.34971,-2.81577 8.98373,-2.84421 4.63401,-0.0284 4.66244,2.87266 9.32488,2.84421 4.66244,-0.0284 5.79779,-2.95798 9.32488,-2.95798 3.52526,0 4.88988,1.8203 4.88988,1.8203 l 0,15.01744 c 0,0 0.0579,4.61643 -3.75269,9.10147 -3.86642,4.55074 -10.91694,5.11959 -10.91694,5.11959 l -22.40246,0 c 0.0169,0 -2.61552,0 -4.88988,3.52682 -2.27436,-3.52682 -5.45847,-3.52682 -5.42732,-3.52682 l -22.20617,0 c 0,0 -6.59565,-0.79638 -10.34835,-4.66451 -3.7527,-3.86813 -4.09385,-9.55655 -4.09385,-9.55655 l 0,-15.01744 z"
       style="fill:#ffffff;fill-opacity:1;fill-rule:evenodd;stroke:#00337f;stroke-width:1.70614898;stroke-linecap:butt;stroke-linejoin:round;stroke-miterlimit:4;stroke-dasharray:none;stroke-opacity:1"
       inkscape:connector-curvature="0" />
    <path
       style="display:inline;fill:none;fill-opacity:0.75;fill-rule:evenodd;stroke:#00337f;stroke-width:1.70614898;stroke-linecap:butt;stroke-linejoin:miter;stroke-miterlimit:4;stroke-dasharray:none;stroke-opacity:1"
       d="m 427.39399,525.40532 c 3.86641,2.16161 11.82668,4.66451 11.82668,4.66451"
       id="path7494"
       sodipodi:nodetypes="cc"
       inkscape:connector-curvature="0" />
    <path
       sodipodi:nodetypes="cc"
       id="path8369"
       d="m 486.29995,525.40532 c -3.86641,2.16161 -11.82668,4.66451 -11.82668,4.66451"
       style="display:inline;fill:none;fill-opacity:0.75;fill-rule:evenodd;stroke:#00337f;stroke-width:1.70614898;stroke-linecap:butt;stroke-linejoin:miter;stroke-miterlimit:4;stroke-dasharray:none;stroke-opacity:1"
       inkscape:connector-curvature="0" />
    <path
       style="display:inline;fill:none;fill-opacity:0.75;fill-rule:evenodd;stroke:#00337f;stroke-width:1.70614898;stroke-linecap:butt;stroke-linejoin:miter;stroke-miterlimit:4;stroke-dasharray:none;stroke-opacity:1"
       d="m 429.55463,530.97998 c 0,0 12.85015,6.25726 27.29234,6.25726 14.4422,0 27.40606,-6.25726 27.40606,-6.25726"
       id="path8371"
       sodipodi:nodetypes="czc"
       inkscape:connector-curvature="0" />
    <path
       sodipodi:nodetypes="czc"
       id="path9246"
       d="m 433.19361,536.89594 c 0,0 8.87001,4.77827 23.3122,4.77827 14.4422,0 23.99452,-4.89204 23.99452,-4.89204"
       style="display:inline;fill:none;fill-opacity:0.75;fill-rule:evenodd;stroke:#00337f;stroke-width:1.70614898;stroke-linecap:butt;stroke-linejoin:miter;stroke-miterlimit:4;stroke-dasharray:none;stroke-opacity:1"
       inkscape:connector-curvature="0" />
  </g>
</svg>
