<?xml version="1.0" encoding="iso-8859-1"?>
<!-- Generator: Adobe Illustrator 18.1.1, SVG Export Plug-In . SVG Version: 6.00 Build 0)  -->
<svg version="1.1" id="Capa_1" xmlns="http://www.w3.org/2000/svg" xmlns:xlink="http://www.w3.org/1999/xlink" x="0px" y="0px"
	 viewBox="0 0 28.889 28.889" style="enable-background:new 0 0 28.889 28.889;" xml:space="preserve">
<g>
  <g>
		<path style="fill:#555555;" d="M13.015,22.285c5.544,0,10.038-4.494,10.038-10.038c0-5.543-4.494-10.037-10.038-10.037
			c-5.543,0-10.037,4.494-10.037,10.037C2.978,17.791,7.472,22.285,13.015,22.285z M16.789,6.194l0.718-0.48
			c0,0-0.302-0.773-0.251-1.152c0.175-0.083,0.882,0.286,1.48,0.916c-0.403,1.497-1.347,1.318-1.347,1.318
			S16.697,6.778,16.789,6.194z M13.905,13.452c0-4.112,3.153-1.009,3.153-1.009c1.8,1.197,2.038-0.993,2.038-0.993l1.318-0.477
			l0.12-0.6l-0.191-0.838l-1.915-0.79c0,0-0.185,0.623,0.308,1.388c0,0-0.165,0.869-0.568,0.644l-1.109-0.558
			c0,0-0.374-0.161-0.973,0.2c-0.6,0.358-1.616-0.017-1.616-0.017s0.083-0.604,0.713-0.917l0.515-0.34c0,0-0.135-0.615-0.016-1.094
			c0.118-0.479,0.329-0.061,0.809-0.42c0.478-0.358,0.809,0.704,1.527,0.584c0.719-0.121,0.359-0.24,0.841-0.479
			c0.479-0.24,0.838,0.479,0.838,0.479l0.957,0.119c0,0-0.149-1.082-0.083-0.803c0.606,1.044,1.495,3.824,1.166,4.321
			c-0.197-0.088-0.362-0.162-0.362-0.162h-1.2l0.719,0.84c0,0,0.347,0.51,0.84,0.477c-0.324,3.759-3.46,6.173-3.46,6.173
			c-0.479-0.48-0.24-0.898-0.24-0.898l0.135-0.721l0.076-1.212c0,0,0-1.257-1.199-0.66c-1.288,0.329-0.751,0.329-2.053,0.419
			C13.689,16.2,13.905,13.452,13.905,13.452z M10.905,4.263c0.955-0.886,2.475-0.704,2.591-0.494
			c-0.271,0.447-0.691,0.298-0.736,0.747c-0.045,0.449-0.763,1.033-0.673,1.214c0.09,0.182,0,0.949-0.63,0.275
			c-0.629-0.674-1.259-0.904-1.212-1.355C10.253,4.561,10.895,4.42,10.905,4.263z M5.436,14.671
			c-0.045-0.313,0.135-1.122,0.135-1.122s0.363-0.272,0.133-0.494c-0.224-0.226-0.268-0.812-0.268-0.812L5.03,11.795
			c0,0-0.313-0.45-0.358-0.674c-0.045-0.225,0-0.36,0.044-0.584c0.044-0.226-0.09-0.629-0.09-0.853
			c1.678-4.117,4.493-5.078,4.493-5.078l0.228,0.943c0,0-0.494,0.135-0.763,0.046c-0.27-0.089-0.406-0.089-0.406-0.089L7.819,5.999
			c0,0-0.137,0.315-0.182,0.495c-0.043,0.18,0.09,0.447,0.09,0.447s0.628,0.046,0.628-0.133c0-0.18-0.088-0.27-0.088-0.27
			l-0.09-0.314c0,0,0.406-0.225,1.482-0.136c1.08,0.091,0.676,0.853,1.125,1.036c0.451,0.179-0.361,0.808-0.54,1.167
			c-0.18,0.36-0.449-0.45-0.449-0.45s0.27-0.312-0.18-0.405C9.166,7.348,8.868,8.245,9.096,8.202
			c0.224-0.044,0.475,0.242,0.43,0.466C9.48,8.894,9.48,8.875,9.255,9.368c-0.224,0.495-0.712,0.861-0.712,0.861
			s-0.229-0.141-0.096,0.129c0.137,0.269-0.044,0.899-0.044,1.079c0,0.179-0.54-0.315-0.628-0.766
			c-0.091-0.446-0.618-0.057-0.797-0.011s-0.507-0.078-0.595-0.302c-0.091-0.225-0.901,0.449-1.126,0.583
			c-0.225,0.135-0.133,0.496,0.225,0.316c0.358-0.181,0.673-0.045,0.585,0.316c-0.09,0.357-0.449,0.135-0.404,0.357
			c0.043,0.225,0.404,0.451,0.493,0.766c0.091,0.312,0.947,0.045,1.214-0.09c0.269-0.136,1.034-0.27,1.123,0.09
			c0.093,0.361,0.945,0.493,1.259,0.582c0.315,0.09,0.944,0.135,1.305,0.495c0.358,0.36-0.27,1.034-0.315,1.26
			c-0.045,0.224-0.315,0.764-0.494,1.123c-0.18,0.359-0.27,0.495-0.495,0.674c-0.224,0.182-0.359,0.495-0.359,0.495l-0.043,0.762
			c0,0,0.088,0.631,0.222,0.857c0.135,0.223-0.481,1.56-0.481,1.56c-0.389-0.077-0.607-0.529-0.743-0.886
			c-0.135-0.362-0.313-0.552-0.268-0.956c0.044-0.404-0.35-0.617-0.483-0.842c-0.135-0.227-0.314-0.54-0.314-0.765
			c0-0.225-0.495-0.54-0.495-0.54s-0.898-0.404-1.033-0.583C5.616,15.751,5.48,14.985,5.436,14.671z"/>
		<path style="fill:#555555;" d="M25.912,12.097c0-5.316-3.714-10.255-9.032-12.012c-0.487-0.154-0.876-0.098-1.121,0.156
			C15.49,0.52,15.496,0.922,15.497,0.96c0,0.708,0.332,0.974,0.544,1.075l0.811,0.318c0.468,0.202,0.919,0.415,0.919,0.415
			c0.016,0.009,0.928,0.507,1.353,0.851c2.833,2.083,4.525,5.253,4.525,8.478c0,5.851-4.964,10.795-10.84,10.795
			c-1.499,0-2.947-0.308-4.294-0.909l-1.147-0.592c-0.354-0.2-0.55-0.337-0.824-0.549l-0.672-0.425l-0.05-0.022
			c-0.126-0.04-0.257-0.059-0.389-0.059c-0.475,0-0.82,0.259-0.856,0.288c-0.44,0.442-0.103,1.065,0.158,1.354
			c1.865,1.584,4.281,2.688,6.656,3.047l0.016,2.177l-1.604,0.382c-2.06,0.52-2.193,0.72-2.163,0.967
			c0.032,0.256,0.316,0.338,1.173,0.338l0,0c0.331,0,0.621-0.015,0.622-0.016l6.896-0.029c2.122,0,2.29-0.154,2.312-0.408
			c0.017-0.176,0.039-0.44-2.23-0.844l-2.257-0.43c0.005-0.381,0.016-1.3,0.017-2.101C20.662,24.251,25.912,18.476,25.912,12.097z
			 M16.332,28.015c0.543,0.096,1.156,0.231,1.542,0.349c-0.28,0.028-0.752,0.051-1.547,0.051l-6.907,0.03
			c-0.002,0-0.285,0.016-0.609,0.016l0,0c-0.188,0-0.333-0.005-0.445-0.012c0.262-0.098,0.723-0.244,1.538-0.45l1.934-0.46
			l-0.022-2.889l-0.184-0.024c-2.355-0.319-4.768-1.403-6.599-2.954c-0.004-0.005-0.418-0.48-0.175-0.727
			c0.002-0.001,0.25-0.183,0.575-0.183c0.08,0,0.159,0.011,0.236,0.033l0.63,0.395c0.274,0.213,0.481,0.361,0.867,0.577l1.163,0.601
			c1.414,0.632,2.921,0.951,4.48,0.951c6.108,0,11.268-5.139,11.268-11.223c0-3.361-1.757-6.659-4.691-8.816
			c-0.449-0.364-1.371-0.867-1.42-0.895c0,0-0.462-0.218-0.95-0.43l-0.803-0.314c-0.106-0.052-0.287-0.209-0.287-0.689
			c-0.002-0.074,0.021-0.291,0.143-0.416c0.129-0.133,0.366-0.145,0.68-0.045c5.143,1.699,8.735,6.471,8.735,11.604
			c0,6.124-5.289,11.876-11.55,12.562l-0.191,0.021v0.192c0,1.072-0.021,2.465-0.021,2.465l-0.002,0.181L16.332,28.015z"/>
	</g>
</g>
<g>
</g>
<g>
</g>
<g>
</g>
<g>
</g>
<g>
</g>
<g>
</g>
<g>
</g>
<g>
</g>
<g>
</g>
<g>
</g>
<g>
</g>
<g>
</g>
<g>
</g>
<g>
</g>
<g>
</g>
</svg>
