<?xml version="1.0" encoding="iso-8859-1"?>
<!-- Generator: Adobe Illustrator 18.0.0, SVG Export Plug-In . SVG Version: 6.00 Build 0)  -->
<!DOCTYPE svg PUBLIC "-//W3C//DTD SVG 1.1//EN" "http://www.w3.org/Graphics/SVG/1.1/DTD/svg11.dtd">
<svg version="1.1" id="Capa_1" xmlns="http://www.w3.org/2000/svg" xmlns:xlink="http://www.w3.org/1999/xlink" x="0px" y="0px"
	 viewBox="0 0 476.683 476.683" style="enable-background:new 0 0 476.683 476.683;" xml:space="preserve">
<g fill="#FFFFFF">
	<path d="M223.249,277.882v16.858h30.185v-16.866c-4.988,0.946-10.024,1.478-15.092,1.478
		C233.259,279.352,228.239,278.82,223.249,277.882z"/>
	<path d="M379.565,253.727l-55.677-16.609c0,0,0,0,0,0.008l-6.161-1.831c-3.989,4.997-8.18,9.556-12.496,13.763l15.857,4.723
		c-10.18,56.082-29.479,117.734-53.235,147.949l-14.325-95.815H223.14l-14.324,95.775c-23.74-30.223-43.04-91.85-53.206-147.917
		l15.843-4.723c-4.332-4.199-8.508-8.766-12.512-13.763l-61.822,18.439c-13.857,4.121-23.335,16.843-23.335,31.278v27.127
		c0,90.881,73.662,164.55,164.559,164.55c0.016,0,0.016,0,0.016,0c90.88,0,164.542-73.669,164.542-164.55v-27.127
		C402.899,270.569,393.422,257.847,379.565,253.727z"/>
	<path d="M149.463,187.744c17.235,36.979,48.952,74.842,88.879,74.842c39.882,0,71.597-37.801,88.831-74.757
		c13.67-2.681,26.635-15.396,32.688-32.765c8.18-23.553,1.361-46.73-15.5-53.47C338.653,44.135,293.175,0,238.342,0
		c-54.848,0-100.326,44.135-106.036,101.595c-8.35,3.361-14.637,11.103-17.374,21.426c-2.565,9.766-1.894,21.152,1.907,32.043
		C122.829,172.27,135.575,184.913,149.463,187.744z M295.081,39.036l0.845,8.265c0.783,7.844,2.956,15.475,6.428,22.552
		l20.426,41.765c-3.863,2.799-7.132,5.842-9.775,8.799v-0.024c0-2.314-1.892-4.191-4.191-4.191h-57.131
		c-2.314,0-4.19,1.877-4.19,4.191v8.726c-5.959-1.774-12.356-1.774-18.313,0.008v-8.734c0-2.314-1.877-4.191-4.192-4.191h-57.129
		c-2.301,0-4.178,1.869-4.193,4.183c-2.627-2.948-5.895-5.981-9.744-8.767l20.426-41.765c3.472-7.077,5.647-14.708,6.428-22.552
		l0.86-8.295c15.516-13.739,35.127-22.24,56.709-22.24C259.909,16.766,279.552,25.281,295.081,39.036z M259.955,136.321
		c-1.251-1.259-2.642-2.322-4.097-3.307v-8.43h48.763v15.656c0,5.629-4.567,10.205-10.196,10.205h-28.354
		c-4.567,0-8.29-3.051-9.603-7.188c0.203,0.032,0.328,0.22,0.531,0.22c1.063,0,2.143-0.415,2.955-1.229
		C261.599,140.606,261.599,137.956,259.955,136.321z M216.744,142.248c0.954,0.946,2.205,1.174,3.456,1.033
		c-1.313,4.12-5.052,7.163-9.603,7.163h-28.354c-5.631,0-10.196-4.575-10.196-10.205v-15.656h48.747v8.46
		c-1.422,0.979-2.815,2.026-4.05,3.276C215.102,137.956,215.102,140.606,216.744,142.248z M131.149,127.297
		c0.828-3.112,2.925-8.602,7.805-10.289c0.516-0.181,1.549-0.29,2.064-0.336c0.033-0.003,0.066-0.007,0.099-0.011
		c3.207-0.369,6.428,0.521,8.992,2.482c7.097,5.431,11.924,12.308,13.554,14.872v6.225c0,10.251,8.337,18.587,18.58,18.587h28.354
		c10.259,0,18.58-8.336,18.58-18.587v-2.213c5.816-2.542,12.511-2.558,18.313-0.04v2.253c0,10.251,8.319,18.587,18.58,18.587h28.354
		c10.243,0,18.579-8.336,18.579-18.587v-6.178c1.628-2.536,6.502-9.52,13.688-14.994c2.95-2.247,6.76-3.068,10.372-2.229
		c0.323,0.075,0.562,0.133,0.667,0.169c7.413,2.58,11.838,16.593,6.302,32.545c-4.988,14.311-15.139,22.028-22.349,22.028
		c-4.004,0.234-6.475,1.923-7.834,5.035c-14.593,33.461-42.087,69.212-75.508,69.212c-33.438,0-60.932-35.751-75.522-69.212
		c-1.33-3.065-4.692-5.035-8.038-5.035c-7.007,0-17.142-7.717-22.114-22.028C129.992,141.881,129.444,133.765,131.149,127.297z"/>
</g>
<g>
</g>
<g>
</g>
<g>
</g>
<g>
</g>
<g>
</g>
<g>
</g>
<g>
</g>
<g>
</g>
<g>
</g>
<g>
</g>
<g>
</g>
<g>
</g>
<g>
</g>
<g>
</g>
<g>
</g>
</svg>
